<?xml version="1.0" encoding="UTF-8"?>
<svg id="Layer_1" xmlns="http://www.w3.org/2000/svg" version="1.1" viewBox="0 0 1024 1024">
  <!-- Generator: Adobe Illustrator 30.1.0, SVG Export Plug-In . SVG Version: 2.1.1 Build 136)  -->
  <defs>
    <style>
      .st0 {
        fill: #010101;
      }
    </style>
  </defs>
  <path class="st0" d="M237.27,774.19c0,26.58,21.69,48.27,48.38,48.27h55.31v136.74c0,34.64,27.82,62.92,62.01,62.92s62.01-28.17,62.01-62.92v-136.85h96.53v136.74c0,34.64,27.82,62.92,62.01,62.92s62.01-28.17,62.01-62.92v-136.74h55.31c26.69,0,48.38-21.69,48.38-48.27v-448.83H237.27v448.94h0ZM642.83,92.66l50.99-73.82c2.95-4.32,2.27-10.11-1.7-12.95-3.97-2.73-9.65-1.36-12.61,2.95l-52.92,76.77c-34.87-13.74-73.71-21.35-114.48-21.35s-79.61,7.61-114.48,21.35l-52.92-76.66c-2.95-4.32-8.63-5.79-12.61-2.95-3.97,2.73-4.66,8.4-1.7,12.95l50.99,73.82c-81.09,37.71-137.87,109.14-145.14,192.62h551.95c-7.5-83.59-64.39-155.02-145.37-192.73h0ZM395.59,209.07c-16.87,0-30.55-13.68-30.55-30.55s13.68-30.55,30.55-30.55,30.55,13.68,30.55,30.55h0c-.04,16.85-13.7,30.51-30.55,30.55ZM632.27,209.07c-16.87,0-30.55-13.68-30.55-30.55s13.68-30.55,30.55-30.55c16.87,0,30.55,13.68,30.55,30.55-.04,16.85-13.7,30.51-30.55,30.55ZM885.99,323.43c-34.3,0-62.01,28.17-62.01,62.92v245.77c0,34.64,27.82,62.92,62.01,62.92s62.01-28.17,62.01-62.92v-245.88c.11-34.75-27.6-62.8-62.01-62.8h0ZM138.01,323.43c-34.3,0-62.01,28.17-62.01,62.92v245.77c0,34.64,27.82,62.92,62.01,62.92s62.01-28.17,62.01-62.92v-245.88c0-34.75-27.82-62.8-62.01-62.8h0Z"/>
</svg>